# xmcd CD database file
#
# Track frame offsets:
#	150
#	21915
#	41190
#	66292
#	89172
#	109597
#	137442
#	160790
#	185890
#	211225
#	234015
#	258782
#
# Disc length: 3766 seconds
#
# Revision: 0
# Processed by: cddbd v1.5PL3 Copyright (c) Steve Scherf et al.
# Submitted via: CDex 1.51
#
DISCID=a20eb40c
DTITLE=Pierre Copeland - Low Down And Dirty
DYEAR=2004
DGENRE=Jazz
TTITLE0=Pierre Copeland - Low Down And Dirty - 01 - Redbone
TTITLE1=Pierre Copeland - Low Down And Dirty - 02 - Total Impact
TTITLE2=Pierre Copeland - Low Down And Dirty - 03 - Rosemary
TTITLE3=Pierre Copeland - Low Down And Dirty - 04 - Safe and Warm
TTITLE4=Pierre Copeland - Low Down And Dirty - 05 - Walt's Groove
TTITLE5=Pierre Copeland - Low Down And Dirty - 06 - Family Reunion
TTITLE6=Pierre Copeland - Low Down And Dirty - 07 - South Bound Atlanta, GA
TTITLE7=Pierre Copeland - Low Down And Dirty - 08 - Janevette
TTITLE8=Pierre Copeland - Low Down And Dirty - 09 - Low Down Dirty
TTITLE9=Pierre Copeland - Low Down And Dirty - 10 - Back Sliding
TTITLE10=Pierre Copeland - Low Down And Dirty - 11 - Ribbon In The Sky
TTITLE11=Pierre Copeland - Low Down And Dirty - 12 - Like That
EXTD=YEAR: 2004
EXTT0=
EXTT1=
EXTT2=
EXTT3=
EXTT4=
EXTT5=
EXTT6=
EXTT7=
EXTT8=
EXTT9=
EXTT10=
EXTT11=
PLAYORDER=
